<svg width="860" height="866" viewBox="0 0 860 866" fill="none" xmlns="http://www.w3.org/2000/svg">
<circle cx="315.5" cy="398.5" r="45.5" fill="#D9D9D9"/>
<path d="M316.42 405.199C315.483 405.199 314.647 405.038 313.913 404.716C313.184 404.394 312.604 403.946 312.173 403.374C311.747 402.796 311.515 402.126 311.477 401.364H313.267C313.305 401.832 313.466 402.237 313.75 402.578C314.034 402.914 314.406 403.175 314.865 403.359C315.324 403.544 315.833 403.636 316.392 403.636C317.017 403.636 317.571 403.527 318.054 403.31C318.537 403.092 318.916 402.789 319.19 402.401C319.465 402.012 319.602 401.562 319.602 401.051C319.602 400.516 319.47 400.045 319.205 399.638C318.939 399.226 318.551 398.904 318.04 398.672C317.528 398.44 316.903 398.324 316.165 398.324H315V396.761H316.165C316.742 396.761 317.249 396.657 317.685 396.449C318.125 396.241 318.468 395.947 318.714 395.568C318.965 395.189 319.091 394.744 319.091 394.233C319.091 393.741 318.982 393.312 318.764 392.947C318.546 392.583 318.239 392.299 317.841 392.095C317.448 391.892 316.984 391.79 316.449 391.79C315.947 391.79 315.473 391.882 315.028 392.067C314.588 392.247 314.228 392.509 313.949 392.855C313.67 393.196 313.518 393.608 313.494 394.091H311.79C311.818 393.329 312.048 392.661 312.479 392.088C312.91 391.51 313.473 391.061 314.169 390.739C314.87 390.417 315.639 390.256 316.477 390.256C317.377 390.256 318.149 390.438 318.793 390.803C319.437 391.162 319.931 391.638 320.277 392.23C320.623 392.822 320.795 393.461 320.795 394.148C320.795 394.967 320.58 395.665 320.149 396.243C319.723 396.821 319.143 397.221 318.409 397.443V397.557C319.328 397.708 320.045 398.099 320.561 398.729C321.077 399.354 321.335 400.128 321.335 401.051C321.335 401.842 321.12 402.552 320.689 403.182C320.263 403.807 319.68 404.299 318.942 404.659C318.203 405.019 317.363 405.199 316.42 405.199Z" fill="black"/>
<circle cx="497.5" cy="398.5" r="45.5" fill="#D9D9D9"/>
<path d="M493.165 402.017V400.568L499.557 390.455H500.608V392.699H499.898L495.068 400.341V400.455H503.676V402.017H493.165ZM500.011 405V401.577V400.902V390.455H501.688V405H500.011Z" fill="black"/>
<circle cx="407.5" cy="580.5" r="45.5" fill="#D9D9D9"/>
<path d="M408.051 587.199C407.218 587.199 406.467 587.033 405.8 586.702C405.132 586.37 404.597 585.916 404.195 585.338C403.792 584.76 403.572 584.102 403.534 583.364H405.239C405.305 584.022 405.603 584.566 406.134 584.997C406.669 585.423 407.308 585.636 408.051 585.636C408.648 585.636 409.178 585.497 409.642 585.217C410.111 584.938 410.478 584.554 410.743 584.067C411.013 583.574 411.148 583.018 411.148 582.398C411.148 581.763 411.008 581.197 410.729 580.7C410.454 580.198 410.075 579.803 409.592 579.514C409.109 579.225 408.558 579.079 407.938 579.074C407.492 579.069 407.036 579.138 406.567 579.28C406.098 579.417 405.712 579.595 405.409 579.812L403.761 579.614L404.642 572.455H412.199V574.017H406.119L405.608 578.307H405.693C405.991 578.07 406.366 577.874 406.815 577.717C407.265 577.561 407.734 577.483 408.222 577.483C409.112 577.483 409.905 577.696 410.601 578.122C411.302 578.544 411.851 579.121 412.249 579.855C412.651 580.589 412.852 581.427 412.852 582.369C412.852 583.297 412.644 584.126 412.227 584.855C411.815 585.58 411.247 586.152 410.523 586.574C409.798 586.991 408.974 587.199 408.051 587.199Z" fill="black"/>
<circle cx="588.5" cy="788.5" r="45.5" fill="#D9D9D9"/>
<path d="M584.619 781.455V796H582.858V783.301H582.773L579.222 785.659V783.869L582.858 781.455H584.619ZM593.547 796.199C592.477 796.199 591.565 795.908 590.812 795.325C590.06 794.738 589.484 793.888 589.087 792.776C588.689 791.658 588.49 790.309 588.49 788.727C588.49 787.155 588.689 785.813 589.087 784.7C589.489 783.583 590.067 782.731 590.82 782.143C591.577 781.552 592.486 781.256 593.547 781.256C594.607 781.256 595.514 781.552 596.267 782.143C597.025 782.731 597.602 783.583 598 784.7C598.402 785.813 598.604 787.155 598.604 788.727C598.604 790.309 598.405 791.658 598.007 792.776C597.609 793.888 597.034 794.738 596.281 795.325C595.528 795.908 594.617 796.199 593.547 796.199ZM593.547 794.636C594.607 794.636 595.431 794.125 596.018 793.102C596.606 792.08 596.899 790.621 596.899 788.727C596.899 787.468 596.764 786.395 596.494 785.51C596.229 784.625 595.846 783.95 595.344 783.486C594.847 783.022 594.248 782.79 593.547 782.79C592.496 782.79 591.674 783.308 591.082 784.345C590.491 785.377 590.195 786.838 590.195 788.727C590.195 789.987 590.327 791.057 590.592 791.938C590.857 792.818 591.239 793.488 591.736 793.947C592.238 794.407 592.841 794.636 593.547 794.636Z" fill="black"/>
<circle cx="691.5" cy="397.5" r="45.5" fill="#D9D9D9"/>
<path d="M692.335 404.199C691.739 404.189 691.142 404.076 690.545 403.858C689.949 403.64 689.404 403.273 688.912 402.757C688.42 402.236 688.024 401.533 687.726 400.648C687.428 399.758 687.278 398.64 687.278 397.295C687.278 396.008 687.399 394.866 687.641 393.872C687.882 392.873 688.232 392.033 688.692 391.351C689.151 390.664 689.705 390.143 690.354 389.788C691.007 389.433 691.743 389.256 692.562 389.256C693.377 389.256 694.101 389.419 694.736 389.746C695.375 390.068 695.896 390.518 696.298 391.095C696.701 391.673 696.961 392.338 697.08 393.091H695.347C695.186 392.437 694.873 391.895 694.409 391.464C693.945 391.034 693.33 390.818 692.562 390.818C691.436 390.818 690.548 391.308 689.899 392.288C689.255 393.268 688.931 394.644 688.926 396.415H689.04C689.305 396.012 689.62 395.669 689.984 395.385C690.354 395.096 690.761 394.874 691.206 394.717C691.651 394.561 692.122 394.483 692.619 394.483C693.453 394.483 694.215 394.691 694.906 395.108C695.598 395.52 696.152 396.09 696.568 396.82C696.985 397.544 697.193 398.375 697.193 399.312C697.193 400.212 696.992 401.036 696.589 401.784C696.187 402.527 695.621 403.119 694.892 403.56C694.168 403.995 693.315 404.208 692.335 404.199ZM692.335 402.636C692.932 402.636 693.467 402.487 693.94 402.189C694.419 401.891 694.795 401.491 695.07 400.989C695.349 400.487 695.489 399.928 695.489 399.312C695.489 398.711 695.354 398.164 695.084 397.672C694.819 397.175 694.452 396.779 693.983 396.486C693.519 396.192 692.989 396.045 692.392 396.045C691.942 396.045 691.523 396.135 691.135 396.315C690.747 396.491 690.406 396.732 690.112 397.04C689.823 397.348 689.596 397.7 689.43 398.098C689.265 398.491 689.182 398.905 689.182 399.341C689.182 399.919 689.317 400.458 689.587 400.96C689.861 401.462 690.235 401.867 690.709 402.175C691.187 402.482 691.729 402.636 692.335 402.636Z" fill="black"/>
<circle cx="814.5" cy="509.5" r="45.5" fill="#D9D9D9"/>
<path d="M810.96 516L817.466 503.131V503.017H809.966V501.455H819.284V503.102L812.807 516H810.96Z" fill="black"/>
<circle cx="615.5" cy="643.5" r="45.5" fill="#D9D9D9"/>
<path d="M615.136 636.256C615.733 636.26 616.33 636.374 616.926 636.597C617.523 636.819 618.067 637.188 618.56 637.705C619.052 638.216 619.447 638.914 619.746 639.8C620.044 640.685 620.193 641.795 620.193 643.131C620.193 644.423 620.07 645.571 619.824 646.575C619.582 647.574 619.232 648.417 618.773 649.104C618.318 649.79 617.764 650.311 617.111 650.666C616.462 651.021 615.728 651.199 614.909 651.199C614.095 651.199 613.368 651.038 612.729 650.716C612.094 650.389 611.573 649.937 611.166 649.359C610.764 648.777 610.506 648.102 610.392 647.335H612.125C612.281 648.003 612.591 648.554 613.055 648.99C613.524 649.421 614.142 649.636 614.909 649.636C616.031 649.636 616.917 649.146 617.565 648.166C618.219 647.186 618.545 645.801 618.545 644.011H618.432C618.167 644.409 617.852 644.752 617.487 645.041C617.123 645.33 616.718 645.553 616.273 645.709C615.828 645.865 615.354 645.943 614.852 645.943C614.019 645.943 613.254 645.737 612.558 645.325C611.867 644.909 611.313 644.338 610.896 643.614C610.484 642.884 610.278 642.051 610.278 641.114C610.278 640.223 610.477 639.409 610.875 638.67C611.277 637.927 611.841 637.335 612.565 636.895C613.295 636.455 614.152 636.241 615.136 636.256ZM615.136 637.818C614.54 637.818 614.002 637.967 613.524 638.266C613.051 638.559 612.674 638.957 612.395 639.459C612.12 639.956 611.983 640.508 611.983 641.114C611.983 641.72 612.116 642.271 612.381 642.768C612.651 643.261 613.018 643.654 613.482 643.947C613.95 644.236 614.483 644.381 615.08 644.381C615.529 644.381 615.948 644.293 616.337 644.118C616.725 643.938 617.063 643.694 617.352 643.386C617.646 643.074 617.875 642.721 618.041 642.328C618.207 641.93 618.29 641.516 618.29 641.085C618.29 640.517 618.152 639.984 617.878 639.487C617.608 638.99 617.234 638.588 616.756 638.28C616.282 637.972 615.742 637.818 615.136 637.818Z" fill="black"/>
<circle cx="769.5" cy="637.5" r="45.5" fill="#D9D9D9"/>
<path d="M770.165 644.199C769.189 644.199 768.328 644.026 767.58 643.68C766.836 643.33 766.256 642.849 765.839 642.239C765.423 641.623 765.217 640.922 765.222 640.136C765.217 639.521 765.338 638.953 765.584 638.432C765.83 637.906 766.166 637.468 766.592 637.118C767.023 636.763 767.504 636.538 768.034 636.443V636.358C767.338 636.178 766.784 635.787 766.372 635.186C765.96 634.58 765.757 633.891 765.761 633.119C765.757 632.381 765.944 631.72 766.322 631.138C766.701 630.555 767.222 630.096 767.885 629.76C768.553 629.424 769.313 629.256 770.165 629.256C771.008 629.256 771.76 629.424 772.423 629.76C773.086 630.096 773.607 630.555 773.986 631.138C774.369 631.72 774.563 632.381 774.568 633.119C774.563 633.891 774.353 634.58 773.936 635.186C773.524 635.787 772.977 636.178 772.295 636.358V636.443C772.821 636.538 773.295 636.763 773.716 637.118C774.137 637.468 774.473 637.906 774.724 638.432C774.975 638.953 775.103 639.521 775.108 640.136C775.103 640.922 774.89 641.623 774.469 642.239C774.052 642.849 773.472 643.33 772.729 643.68C771.99 644.026 771.135 644.199 770.165 644.199ZM770.165 642.636C770.823 642.636 771.391 642.53 771.869 642.317C772.348 642.104 772.717 641.803 772.977 641.415C773.238 641.027 773.37 640.572 773.375 640.051C773.37 639.502 773.228 639.017 772.949 638.595C772.67 638.174 772.288 637.842 771.805 637.601C771.327 637.359 770.78 637.239 770.165 637.239C769.545 637.239 768.991 637.359 768.503 637.601C768.02 637.842 767.639 638.174 767.359 638.595C767.085 639.017 766.95 639.502 766.955 640.051C766.95 640.572 767.075 641.027 767.331 641.415C767.591 641.803 767.963 642.104 768.446 642.317C768.929 642.53 769.502 642.636 770.165 642.636ZM770.165 635.733C770.686 635.733 771.147 635.629 771.55 635.42C771.957 635.212 772.277 634.921 772.509 634.547C772.741 634.173 772.859 633.735 772.864 633.233C772.859 632.741 772.743 632.312 772.516 631.947C772.288 631.578 771.973 631.294 771.571 631.095C771.169 630.892 770.7 630.79 770.165 630.79C769.62 630.79 769.144 630.892 768.737 631.095C768.33 631.294 768.015 631.578 767.793 631.947C767.57 632.312 767.461 632.741 767.466 633.233C767.461 633.735 767.572 634.173 767.8 634.547C768.032 634.921 768.351 635.212 768.759 635.42C769.166 635.629 769.634 635.733 770.165 635.733Z" fill="black"/>
<circle cx="406.5" cy="45.5" r="45.5" fill="#D9D9D9"/>
<path d="M407.619 37.4545V52H405.858V39.3011H405.773L402.222 41.6591V39.8693L405.858 37.4545H407.619Z" fill="black"/>
<path d="M404.939 155.061C405.525 155.646 406.475 155.646 407.061 155.061L416.607 145.515C417.192 144.929 417.192 143.979 416.607 143.393C416.021 142.808 415.071 142.808 414.485 143.393L406 151.879L397.515 143.393C396.929 142.808 395.979 142.808 395.393 143.393C394.808 143.979 394.808 144.929 395.393 145.515L404.939 155.061ZM404.5 91V154H407.5V91H404.5Z" fill="black"/>
<path d="M314.505 351.123C314.573 351.949 315.298 352.563 316.123 352.495L329.578 351.385C330.403 351.317 331.017 350.593 330.949 349.767C330.881 348.941 330.157 348.327 329.331 348.395L317.372 349.382L316.385 337.422C316.317 336.597 315.593 335.983 314.767 336.051C313.941 336.119 313.327 336.843 313.395 337.669L314.505 351.123ZM403.856 245.03L314.856 350.03L317.144 351.97L406.144 246.97L403.856 245.03Z" fill="black"/>
<path d="M447.061 399.061C447.646 398.475 447.646 397.525 447.061 396.939L437.515 387.393C436.929 386.808 435.979 386.808 435.393 387.393C434.808 387.979 434.808 388.929 435.393 389.515L443.879 398L435.393 406.485C434.808 407.071 434.808 408.021 435.393 408.607C435.979 409.192 436.929 409.192 437.515 408.607L447.061 399.061ZM362 399.5H446V396.5H362V399.5Z" fill="black"/>
<path d="M400.958 537.499C401.786 537.523 402.476 536.87 402.499 536.042L402.881 522.548C402.904 521.72 402.252 521.029 401.424 521.006C400.595 520.983 399.905 521.635 399.882 522.463L399.543 534.458L387.548 534.119C386.72 534.096 386.029 534.748 386.006 535.576C385.983 536.405 386.635 537.095 387.463 537.118L400.958 537.499ZM313.91 446.03L399.91 537.03L402.09 534.97L316.09 443.97L313.91 446.03Z" fill="black"/>
<path d="M413.5 536C413.5 536.828 414.172 537.5 415 537.5L428.5 537.5C429.328 537.5 430 536.828 430 536C430 535.172 429.328 534.5 428.5 534.5L416.5 534.5L416.5 522.5C416.5 521.672 415.828 521 415 521C414.172 521 413.5 521.672 413.5 522.5L413.5 536ZM504.939 443.939L413.939 534.939L416.061 537.061L507.061 446.061L504.939 443.939Z" fill="black"/>
<path d="M310.966 497.017V495.455H321.875V497.017H317.301V510H315.54V497.017H310.966ZM323.233 510V499.091H324.853V500.739H324.966C325.165 500.199 325.525 499.761 326.046 499.425C326.567 499.089 327.154 498.92 327.807 498.92C327.93 498.92 328.084 498.923 328.269 498.928C328.453 498.932 328.593 498.939 328.688 498.949V500.653C328.631 500.639 328.501 500.618 328.297 500.589C328.098 500.556 327.888 500.54 327.665 500.54C327.135 500.54 326.661 500.651 326.245 500.874C325.833 501.091 325.506 501.394 325.265 501.783C325.028 502.166 324.909 502.604 324.909 503.097V510H323.233ZM337.55 505.54V499.091H339.226V510H337.55V508.153H337.436C337.18 508.707 336.783 509.179 336.243 509.567C335.703 509.95 335.021 510.142 334.197 510.142C333.516 510.142 332.91 509.993 332.379 509.695C331.849 509.392 331.432 508.937 331.129 508.331C330.826 507.72 330.675 506.951 330.675 506.023V499.091H332.351V505.909C332.351 506.705 332.573 507.339 333.018 507.812C333.468 508.286 334.041 508.523 334.737 508.523C335.154 508.523 335.578 508.416 336.009 508.203C336.444 507.99 336.809 507.663 337.102 507.223C337.401 506.783 337.55 506.222 337.55 505.54ZM346.87 510.227C345.819 510.227 344.912 509.995 344.15 509.531C343.392 509.062 342.807 508.409 342.395 507.571C341.988 506.728 341.784 505.748 341.784 504.631C341.784 503.513 341.988 502.528 342.395 501.676C342.807 500.819 343.38 500.152 344.114 499.673C344.853 499.19 345.714 498.949 346.699 498.949C347.267 498.949 347.828 499.044 348.382 499.233C348.936 499.422 349.441 499.73 349.895 500.156C350.35 500.578 350.712 501.136 350.982 501.832C351.252 502.528 351.387 503.385 351.387 504.403V505.114H342.978V503.665H349.682C349.682 503.049 349.559 502.5 349.313 502.017C349.071 501.534 348.726 501.153 348.276 500.874C347.831 500.594 347.305 500.455 346.699 500.455C346.032 500.455 345.454 500.62 344.966 500.952C344.483 501.278 344.112 501.705 343.851 502.23C343.591 502.756 343.461 503.319 343.461 503.92V504.886C343.461 505.71 343.603 506.409 343.887 506.982C344.176 507.55 344.576 507.983 345.087 508.281C345.598 508.575 346.193 508.722 346.87 508.722C347.31 508.722 347.708 508.66 348.063 508.537C348.423 508.409 348.733 508.22 348.993 507.969C349.254 507.713 349.455 507.396 349.597 507.017L351.216 507.472C351.046 508.021 350.759 508.504 350.357 508.92C349.954 509.332 349.457 509.654 348.865 509.886C348.274 510.114 347.608 510.227 346.87 510.227Z" fill="black"/>
<path d="M470.966 497.017V495.455H481.875V497.017H477.301V510H475.54V497.017H470.966ZM483.233 510V499.091H484.853V500.739H484.966C485.165 500.199 485.525 499.761 486.046 499.425C486.567 499.089 487.154 498.92 487.807 498.92C487.93 498.92 488.084 498.923 488.269 498.928C488.453 498.932 488.593 498.939 488.688 498.949V500.653C488.631 500.639 488.501 500.618 488.297 500.589C488.098 500.556 487.888 500.54 487.665 500.54C487.135 500.54 486.661 500.651 486.245 500.874C485.833 501.091 485.506 501.394 485.265 501.783C485.028 502.166 484.909 502.604 484.909 503.097V510H483.233ZM497.55 505.54V499.091H499.226V510H497.55V508.153H497.436C497.18 508.707 496.783 509.179 496.243 509.567C495.703 509.95 495.021 510.142 494.197 510.142C493.516 510.142 492.91 509.993 492.379 509.695C491.849 509.392 491.432 508.937 491.129 508.331C490.826 507.72 490.675 506.951 490.675 506.023V499.091H492.351V505.909C492.351 506.705 492.573 507.339 493.018 507.812C493.468 508.286 494.041 508.523 494.737 508.523C495.154 508.523 495.578 508.416 496.009 508.203C496.444 507.99 496.809 507.663 497.102 507.223C497.401 506.783 497.55 506.222 497.55 505.54ZM506.87 510.227C505.819 510.227 504.912 509.995 504.15 509.531C503.392 509.062 502.807 508.409 502.395 507.571C501.988 506.728 501.784 505.748 501.784 504.631C501.784 503.513 501.988 502.528 502.395 501.676C502.807 500.819 503.38 500.152 504.114 499.673C504.853 499.19 505.714 498.949 506.699 498.949C507.267 498.949 507.828 499.044 508.382 499.233C508.936 499.422 509.441 499.73 509.895 500.156C510.35 500.578 510.712 501.136 510.982 501.832C511.252 502.528 511.387 503.385 511.387 504.403V505.114H502.978V503.665H509.682C509.682 503.049 509.559 502.5 509.313 502.017C509.071 501.534 508.726 501.153 508.276 500.874C507.831 500.594 507.305 500.455 506.699 500.455C506.032 500.455 505.454 500.62 504.966 500.952C504.483 501.278 504.112 501.705 503.851 502.23C503.591 502.756 503.461 503.319 503.461 503.92V504.886C503.461 505.71 503.603 506.409 503.887 506.982C504.176 507.55 504.576 507.983 505.087 508.281C505.598 508.575 506.193 508.722 506.87 508.722C507.31 508.722 507.708 508.66 508.063 508.537C508.423 508.409 508.733 508.22 508.993 507.969C509.254 507.713 509.455 507.396 509.597 507.017L511.216 507.472C511.046 508.021 510.759 508.504 510.357 508.92C509.954 509.332 509.457 509.654 508.865 509.886C508.274 510.114 507.608 510.227 506.87 510.227Z" fill="black"/>
<path d="M380.761 384V369.455H389.483V371.017H382.523V375.932H388.83V377.494H382.523V384H380.761ZM395.483 384.256C394.791 384.256 394.164 384.125 393.6 383.865C393.037 383.6 392.59 383.219 392.258 382.722C391.927 382.22 391.761 381.614 391.761 380.903C391.761 380.278 391.884 379.772 392.13 379.384C392.377 378.991 392.706 378.683 393.118 378.46C393.529 378.238 393.984 378.072 394.481 377.963C394.983 377.849 395.487 377.759 395.994 377.693C396.657 377.608 397.194 377.544 397.606 377.501C398.023 377.454 398.326 377.376 398.515 377.267C398.709 377.158 398.806 376.969 398.806 376.699V376.642C398.806 375.941 398.615 375.397 398.231 375.009C397.852 374.62 397.277 374.426 396.505 374.426C395.705 374.426 395.078 374.601 394.623 374.952C394.169 375.302 393.849 375.676 393.664 376.074L392.074 375.506C392.358 374.843 392.736 374.327 393.21 373.957C393.688 373.583 394.209 373.323 394.772 373.176C395.341 373.025 395.899 372.949 396.449 372.949C396.799 372.949 397.201 372.991 397.656 373.077C398.115 373.157 398.558 373.325 398.984 373.581C399.415 373.837 399.772 374.223 400.056 374.739C400.341 375.255 400.483 375.946 400.483 376.812V384H398.806V382.523H398.721C398.608 382.759 398.418 383.013 398.153 383.283C397.888 383.553 397.535 383.782 397.095 383.972C396.654 384.161 396.117 384.256 395.483 384.256ZM395.738 382.75C396.401 382.75 396.96 382.62 397.414 382.359C397.874 382.099 398.219 381.763 398.451 381.351C398.688 380.939 398.806 380.506 398.806 380.051V378.517C398.735 378.602 398.579 378.68 398.338 378.751C398.101 378.818 397.826 378.877 397.514 378.929C397.206 378.976 396.905 379.019 396.612 379.057C396.323 379.09 396.089 379.118 395.909 379.142C395.473 379.199 395.066 379.291 394.687 379.419C394.313 379.542 394.01 379.729 393.778 379.98C393.551 380.226 393.437 380.562 393.437 380.989C393.437 381.571 393.653 382.011 394.083 382.31C394.519 382.603 395.071 382.75 395.738 382.75ZM405.218 369.455V384H403.542V369.455H405.218ZM416.015 375.534L414.51 375.96C414.415 375.709 414.275 375.465 414.091 375.229C413.911 374.987 413.664 374.788 413.352 374.632C413.039 374.476 412.639 374.398 412.152 374.398C411.484 374.398 410.928 374.552 410.483 374.859C410.042 375.162 409.822 375.548 409.822 376.017C409.822 376.434 409.974 376.763 410.277 377.004C410.58 377.246 411.053 377.447 411.697 377.608L413.316 378.006C414.292 378.242 415.019 378.605 415.497 379.092C415.975 379.575 416.214 380.198 416.214 380.96C416.214 381.585 416.034 382.144 415.674 382.636C415.319 383.129 414.822 383.517 414.183 383.801C413.544 384.085 412.8 384.227 411.953 384.227C410.84 384.227 409.919 383.986 409.19 383.503C408.461 383.02 407.999 382.314 407.805 381.386L409.396 380.989C409.547 381.576 409.834 382.016 410.255 382.31C410.681 382.603 411.238 382.75 411.924 382.75C412.706 382.75 413.326 382.584 413.785 382.253C414.249 381.917 414.481 381.514 414.481 381.045C414.481 380.667 414.349 380.349 414.083 380.094C413.818 379.833 413.411 379.639 412.862 379.511L411.044 379.085C410.045 378.848 409.311 378.482 408.842 377.984C408.378 377.482 408.146 376.855 408.146 376.102C408.146 375.487 408.319 374.942 408.664 374.469C409.015 373.995 409.491 373.624 410.092 373.354C410.698 373.084 411.385 372.949 412.152 372.949C413.231 372.949 414.079 373.186 414.694 373.659C415.315 374.133 415.755 374.758 416.015 375.534ZM423.311 384.227C422.26 384.227 421.353 383.995 420.591 383.531C419.833 383.062 419.249 382.409 418.837 381.571C418.429 380.728 418.226 379.748 418.226 378.631C418.226 377.513 418.429 376.528 418.837 375.676C419.249 374.819 419.821 374.152 420.555 373.673C421.294 373.19 422.156 372.949 423.141 372.949C423.709 372.949 424.27 373.044 424.824 373.233C425.378 373.422 425.882 373.73 426.337 374.156C426.791 374.578 427.153 375.136 427.423 375.832C427.693 376.528 427.828 377.385 427.828 378.403V379.114H419.419V377.665H426.124C426.124 377.049 426 376.5 425.754 376.017C425.513 375.534 425.167 375.153 424.717 374.874C424.272 374.594 423.747 374.455 423.141 374.455C422.473 374.455 421.895 374.62 421.408 374.952C420.925 375.278 420.553 375.705 420.293 376.23C420.032 376.756 419.902 377.319 419.902 377.92V378.886C419.902 379.71 420.044 380.409 420.328 380.982C420.617 381.55 421.017 381.983 421.528 382.281C422.04 382.575 422.634 382.722 423.311 382.722C423.751 382.722 424.149 382.66 424.504 382.537C424.864 382.409 425.174 382.22 425.435 381.969C425.695 381.713 425.896 381.396 426.038 381.017L427.658 381.472C427.487 382.021 427.201 382.504 426.798 382.92C426.396 383.332 425.899 383.654 425.307 383.886C424.715 384.114 424.05 384.227 423.311 384.227Z" fill="black"/>
<path d="M562.761 392V377.455H571.483V379.017H564.523V383.932H570.83V385.494H564.523V392H562.761ZM577.483 392.256C576.791 392.256 576.164 392.125 575.6 391.865C575.037 391.6 574.59 391.219 574.258 390.722C573.927 390.22 573.761 389.614 573.761 388.903C573.761 388.278 573.884 387.772 574.13 387.384C574.377 386.991 574.706 386.683 575.118 386.46C575.529 386.238 575.984 386.072 576.481 385.963C576.983 385.849 577.487 385.759 577.994 385.693C578.657 385.608 579.194 385.544 579.606 385.501C580.023 385.454 580.326 385.376 580.515 385.267C580.709 385.158 580.806 384.969 580.806 384.699V384.642C580.806 383.941 580.615 383.397 580.231 383.009C579.852 382.62 579.277 382.426 578.505 382.426C577.705 382.426 577.078 382.601 576.623 382.952C576.169 383.302 575.849 383.676 575.664 384.074L574.074 383.506C574.358 382.843 574.736 382.327 575.21 381.957C575.688 381.583 576.209 381.323 576.772 381.176C577.341 381.025 577.899 380.949 578.449 380.949C578.799 380.949 579.201 380.991 579.656 381.077C580.115 381.157 580.558 381.325 580.984 381.581C581.415 381.837 581.772 382.223 582.056 382.739C582.341 383.255 582.483 383.946 582.483 384.812V392H580.806V390.523H580.721C580.608 390.759 580.418 391.013 580.153 391.283C579.888 391.553 579.535 391.782 579.095 391.972C578.654 392.161 578.117 392.256 577.483 392.256ZM577.738 390.75C578.401 390.75 578.96 390.62 579.414 390.359C579.874 390.099 580.219 389.763 580.451 389.351C580.688 388.939 580.806 388.506 580.806 388.051V386.517C580.735 386.602 580.579 386.68 580.338 386.751C580.101 386.818 579.826 386.877 579.514 386.929C579.206 386.976 578.905 387.019 578.612 387.057C578.323 387.09 578.089 387.118 577.909 387.142C577.473 387.199 577.066 387.291 576.687 387.419C576.313 387.542 576.01 387.729 575.778 387.98C575.551 388.226 575.437 388.562 575.437 388.989C575.437 389.571 575.653 390.011 576.083 390.31C576.519 390.603 577.071 390.75 577.738 390.75ZM587.218 377.455V392H585.542V377.455H587.218ZM598.015 383.534L596.51 383.96C596.415 383.709 596.275 383.465 596.091 383.229C595.911 382.987 595.664 382.788 595.352 382.632C595.039 382.476 594.639 382.398 594.152 382.398C593.484 382.398 592.928 382.552 592.483 382.859C592.042 383.162 591.822 383.548 591.822 384.017C591.822 384.434 591.974 384.763 592.277 385.004C592.58 385.246 593.053 385.447 593.697 385.608L595.316 386.006C596.292 386.242 597.019 386.605 597.497 387.092C597.975 387.575 598.214 388.198 598.214 388.96C598.214 389.585 598.034 390.144 597.674 390.636C597.319 391.129 596.822 391.517 596.183 391.801C595.544 392.085 594.8 392.227 593.953 392.227C592.84 392.227 591.919 391.986 591.19 391.503C590.461 391.02 589.999 390.314 589.805 389.386L591.396 388.989C591.547 389.576 591.834 390.016 592.255 390.31C592.681 390.603 593.238 390.75 593.924 390.75C594.706 390.75 595.326 390.584 595.785 390.253C596.249 389.917 596.481 389.514 596.481 389.045C596.481 388.667 596.349 388.349 596.083 388.094C595.818 387.833 595.411 387.639 594.862 387.511L593.044 387.085C592.045 386.848 591.311 386.482 590.842 385.984C590.378 385.482 590.146 384.855 590.146 384.102C590.146 383.487 590.319 382.942 590.664 382.469C591.015 381.995 591.491 381.624 592.092 381.354C592.698 381.084 593.385 380.949 594.152 380.949C595.231 380.949 596.079 381.186 596.694 381.659C597.315 382.133 597.755 382.758 598.015 383.534ZM605.311 392.227C604.26 392.227 603.353 391.995 602.591 391.531C601.833 391.062 601.249 390.409 600.837 389.571C600.429 388.728 600.226 387.748 600.226 386.631C600.226 385.513 600.429 384.528 600.837 383.676C601.249 382.819 601.821 382.152 602.555 381.673C603.294 381.19 604.156 380.949 605.141 380.949C605.709 380.949 606.27 381.044 606.824 381.233C607.378 381.422 607.882 381.73 608.337 382.156C608.791 382.578 609.153 383.136 609.423 383.832C609.693 384.528 609.828 385.385 609.828 386.403V387.114H601.419V385.665H608.124C608.124 385.049 608 384.5 607.754 384.017C607.513 383.534 607.167 383.153 606.717 382.874C606.272 382.594 605.747 382.455 605.141 382.455C604.473 382.455 603.895 382.62 603.408 382.952C602.925 383.278 602.553 383.705 602.293 384.23C602.032 384.756 601.902 385.319 601.902 385.92V386.886C601.902 387.71 602.044 388.409 602.328 388.982C602.617 389.55 603.017 389.983 603.528 390.281C604.04 390.575 604.634 390.722 605.311 390.722C605.751 390.722 606.149 390.66 606.504 390.537C606.864 390.409 607.174 390.22 607.435 389.969C607.695 389.713 607.896 389.396 608.038 389.017L609.658 389.472C609.487 390.021 609.201 390.504 608.798 390.92C608.396 391.332 607.899 391.654 607.307 391.886C606.715 392.114 606.05 392.227 605.311 392.227Z" fill="black"/>
<path d="M647.061 399.061C647.646 398.475 647.646 397.525 647.061 396.939L637.515 387.393C636.929 386.808 635.979 386.808 635.393 387.393C634.808 387.979 634.808 388.929 635.393 389.515L643.879 398L635.393 406.485C634.808 407.071 634.808 408.021 635.393 408.607C635.979 409.192 636.929 409.192 637.515 408.607L647.061 399.061ZM543 399.5H646V396.5H543V399.5Z" fill="black"/>
<path d="M342.589 774.509C342.87 775.288 343.73 775.692 344.509 775.411L357.208 770.83C357.987 770.549 358.391 769.689 358.11 768.91C357.829 768.131 356.969 767.727 356.19 768.008L344.902 772.08L340.83 760.792C340.549 760.013 339.689 759.609 338.91 759.89C338.131 760.171 337.727 761.031 338.008 761.81L342.589 774.509ZM412.642 624.362L342.642 773.362L345.358 774.638L415.358 625.638L412.642 624.362Z" fill="black"/>
<path d="M779.028 478.5C779.856 478.484 780.515 477.801 780.5 476.972L780.25 463.475C780.234 462.646 779.551 461.987 778.722 462.003C777.894 462.018 777.235 462.702 777.25 463.53L777.472 475.528L765.475 475.75C764.646 475.766 763.987 476.449 764.003 477.278C764.018 478.106 764.702 478.765 765.53 478.75L779.028 478.5ZM722.959 425.08L777.959 478.08L780.041 475.92L725.041 422.92L722.959 425.08Z" fill="black"/>
<path d="M747.966 425.017V423.455H758.875V425.017H754.301V438H752.54V425.017H747.966ZM760.233 438V427.091H761.853V428.739H761.966C762.165 428.199 762.525 427.761 763.046 427.425C763.567 427.089 764.154 426.92 764.807 426.92C764.93 426.92 765.084 426.923 765.269 426.928C765.453 426.932 765.593 426.939 765.688 426.949V428.653C765.631 428.639 765.501 428.618 765.297 428.589C765.098 428.556 764.888 428.54 764.665 428.54C764.135 428.54 763.661 428.651 763.245 428.874C762.833 429.091 762.506 429.394 762.265 429.783C762.028 430.166 761.909 430.604 761.909 431.097V438H760.233ZM774.55 433.54V427.091H776.226V438H774.55V436.153H774.436C774.18 436.707 773.783 437.179 773.243 437.567C772.703 437.95 772.021 438.142 771.197 438.142C770.516 438.142 769.91 437.993 769.379 437.695C768.849 437.392 768.432 436.937 768.129 436.331C767.826 435.72 767.675 434.951 767.675 434.023V427.091H769.351V433.909C769.351 434.705 769.573 435.339 770.018 435.812C770.468 436.286 771.041 436.523 771.737 436.523C772.154 436.523 772.578 436.416 773.009 436.203C773.444 435.99 773.809 435.663 774.102 435.223C774.401 434.783 774.55 434.222 774.55 433.54ZM783.87 438.227C782.819 438.227 781.912 437.995 781.15 437.531C780.392 437.062 779.807 436.409 779.395 435.571C778.988 434.728 778.784 433.748 778.784 432.631C778.784 431.513 778.988 430.528 779.395 429.676C779.807 428.819 780.38 428.152 781.114 427.673C781.853 427.19 782.714 426.949 783.699 426.949C784.267 426.949 784.828 427.044 785.382 427.233C785.936 427.422 786.441 427.73 786.895 428.156C787.35 428.578 787.712 429.136 787.982 429.832C788.252 430.528 788.387 431.385 788.387 432.403V433.114H779.978V431.665H786.682C786.682 431.049 786.559 430.5 786.313 430.017C786.071 429.534 785.726 429.153 785.276 428.874C784.831 428.594 784.305 428.455 783.699 428.455C783.032 428.455 782.454 428.62 781.966 428.952C781.483 429.278 781.112 429.705 780.851 430.23C780.591 430.756 780.461 431.319 780.461 431.92V432.886C780.461 433.71 780.603 434.409 780.887 434.982C781.176 435.55 781.576 435.983 782.087 436.281C782.598 436.575 783.193 436.722 783.87 436.722C784.31 436.722 784.708 436.66 785.063 436.537C785.423 436.409 785.733 436.22 785.993 435.969C786.254 435.713 786.455 435.396 786.597 435.017L788.216 435.472C788.046 436.021 787.759 436.504 787.357 436.92C786.954 437.332 786.457 437.654 785.865 437.886C785.274 438.114 784.608 438.227 783.87 438.227Z" fill="black"/>
<path d="M788.572 592.459C788.825 593.248 789.67 593.682 790.459 593.428L803.311 589.297C804.1 589.043 804.534 588.199 804.28 587.41C804.027 586.621 803.182 586.187 802.393 586.441L790.969 590.113L787.297 578.689C787.043 577.9 786.199 577.466 785.41 577.72C784.621 577.973 784.187 578.818 784.441 579.607L788.572 592.459ZM807.666 554.315L788.666 591.315L791.334 592.685L810.334 555.685L807.666 554.315Z" fill="black"/>
<path d="M659.939 635.939C659.354 636.525 659.354 637.475 659.939 638.061L669.485 647.607C670.071 648.192 671.021 648.192 671.607 647.607C672.192 647.021 672.192 646.071 671.607 645.485L663.121 637L671.607 628.515C672.192 627.929 672.192 626.979 671.607 626.393C671.021 625.808 670.071 625.808 669.485 626.393L659.939 635.939ZM724 635.5H661V638.5H724V635.5Z" fill="black"/>
<path d="M593.939 744.061C594.525 744.646 595.475 744.646 596.061 744.061L605.607 734.515C606.192 733.929 606.192 732.979 605.607 732.393C605.021 731.808 604.071 731.808 603.485 732.393L595 740.879L586.515 732.393C585.929 731.808 584.979 731.808 584.393 732.393C583.808 732.979 583.808 733.929 584.393 734.515L593.939 744.061ZM593.5 683V743H596.5V683H593.5Z" fill="black"/>
<path d="M381.822 819.072C381.309 819.723 381.421 820.666 382.072 821.178L392.677 829.532C393.328 830.045 394.271 829.933 394.783 829.282C395.296 828.631 395.184 827.688 394.533 827.175L385.107 819.75L392.532 810.323C393.045 809.672 392.933 808.729 392.282 808.217C391.631 807.704 390.688 807.816 390.175 808.467L381.822 819.072ZM542.823 799.51L382.823 818.51L383.177 821.49L543.177 802.49L542.823 799.51Z" fill="black"/>
<path d="M354 49V49C167.117 239.525 128.411 530.531 258.995 763.282L291.13 820.558" stroke="black" stroke-width="3"/>
<path d="M361.5 43C361.5 42.1716 360.828 41.5 360 41.5H346.5C345.672 41.5 345 42.1716 345 43C345 43.8284 345.672 44.5 346.5 44.5H358.5V56.5C358.5 57.3284 359.172 58 360 58C360.828 58 361.5 57.3284 361.5 56.5V43ZM354.061 51.0607L361.061 44.0607L358.939 41.9393L351.939 48.9393L354.061 51.0607Z" fill="black"/>
<circle cx="406.5" cy="201.5" r="45.5" fill="#D9D9D9"/>
<path d="M402.506 208V206.722L407.307 201.466C407.87 200.85 408.334 200.315 408.699 199.861C409.063 199.402 409.333 198.971 409.509 198.568C409.688 198.161 409.778 197.735 409.778 197.29C409.778 196.778 409.655 196.336 409.409 195.962C409.168 195.588 408.836 195.299 408.415 195.095C407.993 194.892 407.52 194.79 406.994 194.79C406.436 194.79 405.948 194.906 405.531 195.138C405.119 195.365 404.8 195.685 404.572 196.097C404.35 196.509 404.239 196.991 404.239 197.545H402.562C402.562 196.693 402.759 195.945 403.152 195.301C403.545 194.657 404.08 194.155 404.757 193.795C405.439 193.436 406.204 193.256 407.051 193.256C407.903 193.256 408.659 193.436 409.317 193.795C409.975 194.155 410.491 194.641 410.865 195.251C411.239 195.862 411.426 196.542 411.426 197.29C411.426 197.825 411.329 198.348 411.135 198.859C410.946 199.366 410.614 199.932 410.141 200.557C409.672 201.177 409.021 201.935 408.188 202.83L404.92 206.324V206.438H411.682V208H402.506Z" fill="black"/>
<path d="M136.966 449.017V447.455H147.875V449.017H143.301V462H141.54V449.017H136.966ZM149.233 462V451.091H150.853V452.739H150.966C151.165 452.199 151.525 451.761 152.046 451.425C152.567 451.089 153.154 450.92 153.807 450.92C153.93 450.92 154.084 450.923 154.269 450.928C154.453 450.932 154.593 450.939 154.688 450.949V452.653C154.631 452.639 154.501 452.618 154.297 452.589C154.098 452.556 153.888 452.54 153.665 452.54C153.135 452.54 152.661 452.651 152.245 452.874C151.833 453.091 151.506 453.394 151.265 453.783C151.028 454.166 150.909 454.604 150.909 455.097V462H149.233ZM163.55 457.54V451.091H165.226V462H163.55V460.153H163.436C163.18 460.707 162.783 461.179 162.243 461.567C161.703 461.95 161.021 462.142 160.197 462.142C159.516 462.142 158.91 461.993 158.379 461.695C157.849 461.392 157.432 460.937 157.129 460.331C156.826 459.72 156.675 458.951 156.675 458.023V451.091H158.351V457.909C158.351 458.705 158.573 459.339 159.018 459.812C159.468 460.286 160.041 460.523 160.737 460.523C161.154 460.523 161.578 460.416 162.009 460.203C162.444 459.99 162.809 459.663 163.102 459.223C163.401 458.783 163.55 458.222 163.55 457.54ZM172.87 462.227C171.819 462.227 170.912 461.995 170.15 461.531C169.392 461.062 168.807 460.409 168.395 459.571C167.988 458.728 167.784 457.748 167.784 456.631C167.784 455.513 167.988 454.528 168.395 453.676C168.807 452.819 169.38 452.152 170.114 451.673C170.853 451.19 171.714 450.949 172.699 450.949C173.267 450.949 173.828 451.044 174.382 451.233C174.936 451.422 175.441 451.73 175.895 452.156C176.35 452.578 176.712 453.136 176.982 453.832C177.252 454.528 177.387 455.385 177.387 456.403V457.114H168.978V455.665H175.682C175.682 455.049 175.559 454.5 175.313 454.017C175.071 453.534 174.726 453.153 174.276 452.874C173.831 452.594 173.305 452.455 172.699 452.455C172.032 452.455 171.454 452.62 170.966 452.952C170.483 453.278 170.112 453.705 169.851 454.23C169.591 454.756 169.461 455.319 169.461 455.92V456.886C169.461 457.71 169.603 458.409 169.887 458.982C170.176 459.55 170.576 459.983 171.087 460.281C171.598 460.575 172.193 460.722 172.87 460.722C173.31 460.722 173.708 460.66 174.063 460.537C174.423 460.409 174.733 460.22 174.993 459.969C175.254 459.713 175.455 459.396 175.597 459.017L177.216 459.472C177.046 460.021 176.759 460.504 176.357 460.92C175.954 461.332 175.457 461.654 174.865 461.886C174.274 462.114 173.608 462.227 172.87 462.227Z" fill="black"/>
<circle cx="335.5" cy="820.5" r="45.5" fill="#D9D9D9"/>
<path d="M331.619 813.455V828H329.858V815.301H329.773L326.222 817.659V815.869L329.858 813.455H331.619ZM340.916 813.455V828H339.155V815.301H339.07L335.518 817.659V815.869L339.155 813.455H340.916Z" fill="black"/>
</svg>
